<?xml version="1.0" standalone="no"?>
<!DOCTYPE svg PUBLIC "-//W3C//DTD SVG 20010904//EN"
 "http://www.w3.org/TR/2001/REC-SVG-20010904/DTD/svg10.dtd">
<svg version="1.0" xmlns="http://www.w3.org/2000/svg"
 width="260.000000pt" height="260.000000pt" viewBox="0 0 260.000000 260.000000"
 preserveAspectRatio="xMidYMid meet">
<metadata>
Created by potrace 1.11, written by Peter Selinger 2001-2013
</metadata>
<g transform="translate(0.000000,260.000000) scale(0.100000,-0.100000)"
fill="#000000" stroke="none">
<path d="M1245 2510 c-212 -45 -381 -136 -532 -288 -308 -310 -394 -779 -218
-1177 31 -70 117 -203 169 -260 19 -22 36 -42 36 -45 0 -3 -76 -81 -169 -172
l-169 -167 77 -73 c149 -144 331 -237 526 -272 154 -28 383 -14 519 30 259 85
500 293 625 541 140 278 140 640 1 926 -39 80 -122 201 -167 243 -13 12 -23
25 -23 30 0 5 75 84 167 176 l168 168 -50 50 c-145 148 -332 249 -550 296 -16
3 -95 7 -175 9 -114 3 -164 0 -235 -15z m380 -75 c134 -27 217 -57 315 -115
72 -42 190 -134 190 -149 0 -12 -1348 -1356 -1364 -1359 -27 -6 -139 148 -192
266 -59 127 -82 244 -82 405 1 188 37 329 122 473 151 258 398 432 681 478 78
13 269 13 330 1z m260 -701 c83 -90 167 -231 200 -339 36 -116 44 -186 41
-335 -3 -121 -8 -160 -30 -234 -49 -164 -129 -296 -253 -418 -94 -93 -161
-142 -268 -193 -207 -101 -481 -120 -705 -49 -130 41 -253 111 -346 196 l-41
38 681 680 c374 374 685 680 689 680 4 0 19 -12 32 -26z"/>
</g>
</svg>
