<svg display="none" width="0" height="0" version="1.1" xmlns="http://www.w3.org/2000/svg">
<defs>
<symbol id="icon-cubes" viewBox="0 0 1317 1024">
	<title>cubes</title>
	<path class="path1" d="M365.714 932.571l219.429-109.714v-179.429l-219.429 93.714v195.429zM329.143 673.143l230.857-98.857-230.857-98.857-230.857 98.857zM950.857 932.571l219.429-109.714v-179.429l-219.429 93.714v195.429zM914.286 673.143l230.857-98.857-230.857-98.857-230.857 98.857zM658.286 505.714l219.429-94.286v-152l-219.429 93.714v152.571zM621.714 289.143l252-108-252-108-252 108zM1243.429 585.143v237.714q0 20.571-10.857 38.286t-29.714 26.857l-256 128q-14.286 8-32.571 8t-32.571-8l-256-128q-2.857-1.143-4-2.286-1.143 1.143-4 2.286l-256 128q-14.286 8-32.571 8t-32.571-8l-256-128q-18.857-9.143-29.714-26.857t-10.857-38.286v-237.714q0-21.714 12.286-40t32.286-27.429l248-106.286v-228.571q0-21.714 12.286-40t32.286-27.429l256-109.714q13.143-5.714 28.571-5.714t28.571 5.714l256 109.714q20 9.143 32.286 27.429t12.286 40v228.571l248 106.286q20.571 9.143 32.571 27.429t12 40z"></path>
</symbol>
<symbol id="icon-connectdevelop" viewBox="0 0 1170 1024">
	<title>connectdevelop</title>
	<path class="path1" d="M1170.286 511.429q0 12-7.429 20.857t-18.857 11.143l-117.143 203.429q1.714 5.143 1.714 10.286 0 11.429-7.143 20.286t-18.571 11.143l-110.286 192.571q1.714 4.571 1.714 9.143 0 13.143-9.429 22.857t-23.143 9.714q-14.286 0-23.429-10.286h-228.571q-9.714 11.429-24.571 11.429t-24.571-11.429h-228q-9.714 11.429-24.571 11.429-13.143 0-22.857-9.429t-9.714-23.143q0-4.571 2.286-11.429l-110.286-191.429q-11.429-2.286-18.571-11.143t-7.143-20.286q0-5.143 1.714-10.286l-117.714-203.429q-11.429-2.857-18.571-11.714t-7.143-20.286q0-12 7.714-20.857t19.143-11.143l113.714-196.571q0-0.571-0.286-1.714t-0.286-1.714q0-20.571 19.429-29.143l119.429-207.429q-2.286-5.714-2.286-10.286 0-13.714 9.714-23.143t22.857-9.429q14.857 0 25.143 12h226.286q9.143-12 24.571-12t24.571 12h227.429q10.286-12 25.143-12 13.143 0 22.857 9.429t9.714 23.143q0 3.429-2.286 10.286l118.286 204.571q13.143 0.571 22.286 10t9.143 22q0 7.429-4 15.429l106.857 185.143q10.857 2.286 18 11.143t7.143 20.286zM607.429 968h222.286l-195.429-202.286h-81.714l-195.429 202.286h205.714q10.286-9.143 22.286-9.143t22.286 9.143zM64 504q0.571 2.286 0.571 7.429 0 5.714-1.143 8.571l118.857 205.714q1.143 0 2.571 0.571t3.143 1.429l2.857 1.429 107.429-113.714v-198.286l-106.857-110.857q-7.429 4.571-16.571 5.714zM563.429 56h-221.714l108.571 114.286 316.571-114.286h-160q-9.143 9.143-21.714 9.143t-21.714-9.143zM965.143 748.571q0.571-3.429 2.857-6.286l-36.571-38.857-9.714 45.143h43.429zM904.571 748.571l12.571-60-144-152-169.143 175.429 36 36.571h264.571zM854.286 958.857l9.143-16 37.143-177.143h-244l190.286 196q4.571-2.286 7.429-2.857zM330.286 968h2.857l195.429-202.286h-213.143v191.429l2.286 3.429q8 2.857 12.571 7.429zM315.429 748.571h229.714l36.571-37.714-176.571-183.429-89.714 94.857v126.286zM205.143 748.571h93.143v-108l-96 101.143q2.286 4.571 2.857 6.857zM204.571 277.143q0 0.571 0.286 1.143t0.286 1.143q0 9.143-4.571 16.571l97.714 101.143v-153.714zM315.429 237.143v177.714l87.429 89.714 169.714-179.429-127.429-134.857zM317.714 63.429l-2.286 4.571v150.857l117.143-42.286-109.143-114.857q-3.429 1.143-5.714 1.714zM826.857 56h-9.143l-354.857 128 121.714 128.571zM584.571 337.143l-169.714 180 177.714 182.286 169.143-175.429zM393.143 515.429l-77.714-80.571v162.286zM593.143 723.429l-24 25.143h48.571zM785.143 524.571l136 143.429 75.429-356.571-1.714-2.857-0.571-0.571zM981.714 296q-4.571-7.429-4.571-16.571v-1.143l-123.429-214.857q-2.857-0.571-7.429-2.857l-249.714 264.571 177.143 186.857zM298.286 225.143v-127.429l-93.143 161.143zM298.286 765.714h-93.143l93.143 161.714v-161.714zM918.286 765.714l-27.429 129.714 74.286-129.714h-46.857zM988 725.714l118.286-206.286q-1.143-5.714-1.143-8 0-0.571 1.714-9.143l-97.714-169.143-73.714 349.714 44 46.857q2.857-1.714 8.571-4z"></path>
</symbol>
<symbol id="icon-street-view" viewBox="0 0 1024 1024">
	<title>street-view</title>
	<path class="path1" d="M804.571 877.714q0 36-35.143 64.857t-93.714 46.286-128.571 26.286-144.857 8.857-144.857-8.857-128.571-26.286-93.714-46.286-35.143-64.857q0-28 18.857-50.571t52-38 67.429-25.429 74.857-16.857q14.857-2.857 27.429 6t14.857 23.714q2.857 14.857-6 27.429t-23.714 14.857q-33.143 5.714-60.571 13.429t-43.714 14.571-27.714 13.429-15.714 11.143-4.857 6.857q1.714 6.286 15.429 15.143t41.714 18.857 65.143 18.571 91.714 14.286 115.143 5.714 115.143-5.714 91.714-14.286 65.143-18.857 41.714-19.143 15.429-15.714q-0.571-2.286-4.857-6.286t-15.714-10.857-27.714-13.429-43.714-14.286-60.571-13.429q-14.857-2.286-23.714-14.857t-6-27.429q2.286-14.857 14.857-23.714t27.429-6q40.571 6.857 74.857 16.857t67.429 25.429 52 38 18.857 50.571zM585.143 365.714v219.429q0 14.857-10.857 25.714t-25.714 10.857h-36.571v219.429q0 14.857-10.857 25.714t-25.714 10.857h-146.286q-14.857 0-25.714-10.857t-10.857-25.714v-219.429h-36.571q-14.857 0-25.714-10.857t-10.857-25.714v-219.429q0-30.286 21.429-51.714t51.714-21.429h219.429q30.286 0 51.714 21.429t21.429 51.714zM530.286 146.286q0 53.143-37.429 90.571t-90.571 37.429-90.571-37.429-37.429-90.571 37.429-90.571 90.571-37.429 90.571 37.429 37.429 90.571z"></path>
</symbol>
</defs>
</svg>
