<svg display="none" width="0" height="0" version="1.1" xmlns="http://www.w3.org/2000/svg">
<defs>
<symbol id="icon-cubes" viewBox="0 0 1317 1024">
	<title>cubes</title>
	<path class="path1" d="M365.714 932.571l219.429-109.714v-179.429l-219.429 93.714v195.429zM329.143 673.143l230.857-98.857-230.857-98.857-230.857 98.857zM950.857 932.571l219.429-109.714v-179.429l-219.429 93.714v195.429zM914.286 673.143l230.857-98.857-230.857-98.857-230.857 98.857zM658.286 505.714l219.429-94.286v-152l-219.429 93.714v152.571zM621.714 289.143l252-108-252-108-252 108zM1243.429 585.143v237.714q0 20.571-10.857 38.286t-29.714 26.857l-256 128q-14.286 8-32.571 8t-32.571-8l-256-128q-2.857-1.143-4-2.286-1.143 1.143-4 2.286l-256 128q-14.286 8-32.571 8t-32.571-8l-256-128q-18.857-9.143-29.714-26.857t-10.857-38.286v-237.714q0-21.714 12.286-40t32.286-27.429l248-106.286v-228.571q0-21.714 12.286-40t32.286-27.429l256-109.714q13.143-5.714 28.571-5.714t28.571 5.714l256 109.714q20 9.143 32.286 27.429t12.286 40v228.571l248 106.286q20.571 9.143 32.571 27.429t12 40z"></path>
</symbol>
<symbol id="icon-connectdevelop" viewBox="0 0 1170 1024">
	<title>connectdevelop</title>
	<path class="path1" d="M1170.286 511.429q0 12-7.429 20.857t-18.857 11.143l-117.143 203.429q1.714 5.143 1.714 10.286 0 11.429-7.143 20.286t-18.571 11.143l-110.286 192.571q1.714 4.571 1.714 9.143 0 13.143-9.429 22.857t-23.143 9.714q-14.286 0-23.429-10.286h-228.571q-9.714 11.429-24.571 11.429t-24.571-11.429h-228q-9.714 11.429-24.571 11.429-13.143 0-22.857-9.429t-9.714-23.143q0-4.571 2.286-11.429l-110.286-191.429q-11.429-2.286-18.571-11.143t-7.143-20.286q0-5.143 1.714-10.286l-117.714-203.429q-11.429-2.857-18.571-11.714t-7.143-20.286q0-12 7.714-20.857t19.143-11.143l113.714-196.571q0-0.571-0.286-1.714t-0.286-1.714q0-20.571 19.429-29.143l119.429-207.429q-2.286-5.714-2.286-10.286 0-13.714 9.714-23.143t22.857-9.429q14.857 0 25.143 12h226.286q9.143-12 24.571-12t24.571 12h227.429q10.286-12 25.143-12 13.143 0 22.857 9.429t9.714 23.143q0 3.429-2.286 10.286l118.286 204.571q13.143 0.571 22.286 10t9.143 22q0 7.429-4 15.429l106.857 185.143q10.857 2.286 18 11.143t7.143 20.286zM607.429 968h222.286l-195.429-202.286h-81.714l-195.429 202.286h205.714q10.286-9.143 22.286-9.143t22.286 9.143zM64 504q0.571 2.286 0.571 7.429 0 5.714-1.143 8.571l118.857 205.714q1.143 0 2.571 0.571t3.143 1.429l2.857 1.429 107.429-113.714v-198.286l-106.857-110.857q-7.429 4.571-16.571 5.714zM563.429 56h-221.714l108.571 114.286 316.571-114.286h-160q-9.143 9.143-21.714 9.143t-21.714-9.143zM965.143 748.571q0.571-3.429 2.857-6.286l-36.571-38.857-9.714 45.143h43.429zM904.571 748.571l12.571-60-144-152-169.143 175.429 36 36.571h264.571zM854.286 958.857l9.143-16 37.143-177.143h-244l190.286 196q4.571-2.286 7.429-2.857zM330.286 968h2.857l195.429-202.286h-213.143v191.429l2.286 3.429q8 2.857 12.571 7.429zM315.429 748.571h229.714l36.571-37.714-176.571-183.429-89.714 94.857v126.286zM205.143 748.571h93.143v-108l-96 101.143q2.286 4.571 2.857 6.857zM204.571 277.143q0 0.571 0.286 1.143t0.286 1.143q0 9.143-4.571 16.571l97.714 101.143v-153.714zM315.429 237.143v177.714l87.429 89.714 169.714-179.429-127.429-134.857zM317.714 63.429l-2.286 4.571v150.857l117.143-42.286-109.143-114.857q-3.429 1.143-5.714 1.714zM826.857 56h-9.143l-354.857 128 121.714 128.571zM584.571 337.143l-169.714 180 177.714 182.286 169.143-175.429zM393.143 515.429l-77.714-80.571v162.286zM593.143 723.429l-24 25.143h48.571zM785.143 524.571l136 143.429 75.429-356.571-1.714-2.857-0.571-0.571zM981.714 296q-4.571-7.429-4.571-16.571v-1.143l-123.429-214.857q-2.857-0.571-7.429-2.857l-249.714 264.571 177.143 186.857zM298.286 225.143v-127.429l-93.143 161.143zM298.286 765.714h-93.143l93.143 161.714v-161.714zM918.286 765.714l-27.429 129.714 74.286-129.714h-46.857zM988 725.714l118.286-206.286q-1.143-5.714-1.143-8 0-0.571 1.714-9.143l-97.714-169.143-73.714 349.714 44 46.857q2.857-1.714 8.571-4z"></path>
</symbol>
<symbol id="icon-street-view" viewBox="0 0 1024 1024">
	<title>street-view</title>
	<path class="path1" d="M804.571 877.714q0 36-35.143 64.857t-93.714 46.286-128.571 26.286-144.857 8.857-144.857-8.857-128.571-26.286-93.714-46.286-35.143-64.857q0-28 18.857-50.571t52-38 67.429-25.429 74.857-16.857q14.857-2.857 27.429 6t14.857 23.714q2.857 14.857-6 27.429t-23.714 14.857q-33.143 5.714-60.571 13.429t-43.714 14.571-27.714 13.429-15.714 11.143-4.857 6.857q1.714 6.286 15.429 15.143t41.714 18.857 65.143 18.571 91.714 14.286 115.143 5.714 115.143-5.714 91.714-14.286 65.143-18.857 41.714-19.143 15.429-15.714q-0.571-2.286-4.857-6.286t-15.714-10.857-27.714-13.429-43.714-14.286-60.571-13.429q-14.857-2.286-23.714-14.857t-6-27.429q2.286-14.857 14.857-23.714t27.429-6q40.571 6.857 74.857 16.857t67.429 25.429 52 38 18.857 50.571zM585.143 365.714v219.429q0 14.857-10.857 25.714t-25.714 10.857h-36.571v219.429q0 14.857-10.857 25.714t-25.714 10.857h-146.286q-14.857 0-25.714-10.857t-10.857-25.714v-219.429h-36.571q-14.857 0-25.714-10.857t-10.857-25.714v-219.429q0-30.286 21.429-51.714t51.714-21.429h219.429q30.286 0 51.714 21.429t21.429 51.714zM530.286 146.286q0 53.143-37.429 90.571t-90.571 37.429-90.571-37.429-37.429-90.571 37.429-90.571 90.571-37.429 90.571 37.429 37.429 90.571z"></path>
</symbol>
<symbol id="icon-facebook" viewBox="0 0 1024 1024">
	<title>facebook</title>
	<path class="path1" d="M672 192c-88.366 0-160 71.634-160 160v96h-128v128h128v448h128v-448h144l32-128h-176v-96c0-17.672 14.326-32 32-32h160v-128h-160z"></path>
</symbol>
<symbol id="icon-twitter" viewBox="0 0 1024 1024">
	<title>twitter</title>
	<path class="path1" d="M1024 194.418c-37.676 16.708-78.164 28.002-120.66 33.080 43.372-26 76.686-67.17 92.372-116.23-40.596 24.078-85.556 41.56-133.41 50.98-38.32-40.83-92.922-66.34-153.346-66.34-116.022 0-210.088 94.058-210.088 210.078 0 16.466 1.858 32.5 5.44 47.878-174.6-8.764-329.402-92.4-433.018-219.506-18.084 31.028-28.446 67.116-28.446 105.618 0 72.888 37.088 137.192 93.46 174.866-34.438-1.092-66.832-10.542-95.154-26.278-0.020 0.876-0.020 1.756-0.020 2.642 0 101.788 72.418 186.696 168.522 206-17.626 4.8-36.188 7.372-55.348 7.372-13.538 0-26.698-1.32-39.528-3.772 26.736 83.46 104.32 144.206 196.252 145.896-71.9 56.35-162.486 89.934-260.916 89.934-16.958 0-33.68-0.994-50.116-2.94 92.972 59.61 203.402 94.394 322.042 94.394 386.422 0 597.736-320.124 597.736-597.744 0-9.108-0.206-18.168-0.61-27.18 41.056-29.62 76.672-66.62 104.836-108.748z"></path>
</symbol>
<symbol id="icon-google-plus" viewBox="0 0 1024 1024">
	<title>google-plus</title>
	<path class="path1" d="M559.066 64c0 0-200.956 0-267.94 0-120.12 0-233.17 91.006-233.17 196.422 0 107.726 81.882 194.666 204.088 194.666 8.498 0 16.756-0.17 24.842-0.752-7.93 15.186-13.602 32.288-13.602 50.042 0 29.938 16.104 54.21 36.468 74.024-15.386 0-30.242 0.448-46.452 0.448-148.782-0.002-263.3 94.758-263.3 193.020 0 96.778 125.542 157.314 274.334 157.314 169.624 0 263.306-96.244 263.306-193.028 0-77.6-22.896-124.072-93.686-174.134-24.216-17.144-70.53-58.836-70.53-83.344 0-28.72 8.196-42.868 51.428-76.646 44.312-34.624 75.672-83.302 75.672-139.916 0-67.406-30.020-133.098-86.372-154.772h84.954l59.96-43.344zM465.48 719.458c2.126 8.972 3.284 18.206 3.284 27.628 0 78.2-50.392 139.31-194.974 139.31-102.842 0-177.116-65.104-177.116-143.3 0-76.642 92.126-140.444 194.964-139.332 24 0.254 46.368 4.116 66.67 10.69 55.826 38.826 95.876 60.762 107.172 105.004zM300.818 427.776c-69.038-2.064-134.636-77.226-146.552-167.86-11.916-90.666 34.37-160.042 103.388-157.99 69.010 2.074 134.638 74.814 146.558 165.458 11.906 90.66-34.39 162.458-103.394 160.392zM832 256v-192h-64v192h-192v64h192v192h64v-192h192v-64z"></path>
</symbol>
<symbol id="icon-instagram" viewBox="0 0 1024 1024">
	<title>instagram</title>
	<path class="path1" d="M854 0h-684c-93.5 0-170 76.5-170 170v684c0 93.5 76.5 170 170 170h684c93.5 0 170-76.5 170-170v-684c0-93.5-76.5-170-170-170zM327.8 448h368.4c6.988 20.058 10.8 41.59 10.8 64 0 107.524-87.476 195-195 195s-195-87.476-195-195c0-22.41 3.812-43.942 10.8-64zM896 448.050v383.95c0 35.2-28.8 64-64 64h-640c-35.2 0-64-28.8-64-64v-384h100.108c-4.642 20.602-7.108 42.016-7.108 64 0 160.458 130.542 291 291 291s291-130.542 291-291c0-21.984-2.464-43.398-7.108-64l100.108 0.050zM896 224c0 17.6-14.4 32-32 32h-64c-17.6 0-32-14.4-32-32v-64c0-17.6 14.4-32 32-32h64c17.6 0 32 14.4 32 32v64z"></path>
</symbol>
<symbol id="icon-dribbble" viewBox="0 0 1024 1024">
	<title>dribbble</title>
	<path class="path1" d="M512.002 1024c-282.32 0-512.002-229.682-512.002-512s229.682-512 512.002-512c282.322 0 511.998 229.682 511.998 512s-229.676 512-511.998 512zM943.798 582.086c-14.962-4.72-135.364-40.632-272.41-18.698 57.204 157.186 80.478 285.208 84.958 311.808 98.114-66.336 167.958-171.426 187.452-293.11zM682.832 915.238c-6.506-38.37-31.898-172.090-93.298-331.64-0.96 0.328-1.922 0.64-2.88 0.972-246.67 85.958-335.216 257.016-343.086 273.104 74.15 57.824 167.336 92.32 268.436 92.32 60.58 0 118.318-12.39 170.828-34.756zM187.098 805.078c9.908-16.96 129.93-215.684 355.476-288.594 5.704-1.84 11.448-3.57 17.236-5.2-10.98-24.844-22.94-49.714-35.456-74.216-218.398 65.36-430.324 62.63-449.46 62.236-0.132 4.442-0.222 8.89-0.222 13.366 0 112.32 42.58 214.874 112.426 292.408zM83.912 423.096c19.558 0.26 199.736 1.042 404.302-53.282-72.46-128.812-150.612-237.11-162.142-252.92-122.348 57.708-213.802 170.496-242.16 306.202zM409.518 87.5c12.088 16.184 91.518 124.348 163.18 256.014 155.508-58.284 221.34-146.77 229.208-157.974-77.23-68.518-178.782-110.2-289.902-110.2-35.29 0-69.6 4.232-102.486 12.16zM850.522 236.112c-9.216 12.474-82.504 106.418-244.202 172.434 10.178 20.832 19.934 42.018 29.016 63.344 3.216 7.56 6.354 15.084 9.418 22.57 145.518-18.298 290.104 11.028 304.526 14.078-0.968-103.224-37.85-198.010-98.758-272.426z"></path>
</symbol>
<symbol id="icon-pinterest" viewBox="0 0 1024 1024">
	<title>pinterest</title>
	<path class="path1" d="M512.006 0.002c-282.774 0-512.006 229.23-512.006 511.996 0 216.906 134.952 402.166 325.414 476.772-4.478-40.508-8.518-102.644 1.774-146.876 9.298-39.954 60.040-254.5 60.040-254.5s-15.32-30.664-15.32-76.008c0-71.19 41.268-124.336 92.644-124.336 43.68 0 64.784 32.794 64.784 72.12 0 43.928-27.964 109.604-42.404 170.464-12.060 50.972 25.556 92.536 75.814 92.536 91.008 0 160.958-95.96 160.958-234.466 0-122.584-88.088-208.298-213.868-208.298-145.678 0-231.186 109.274-231.186 222.19 0 44.008 16.95 91.196 38.102 116.844 4.182 5.070 4.792 9.516 3.548 14.68-3.884 16.18-12.522 50.96-14.216 58.076-2.234 9.368-7.422 11.356-17.124 6.842-63.95-29.77-103.926-123.264-103.926-198.348 0-161.51 117.348-309.834 338.294-309.834 177.61 0 315.634 126.56 315.634 295.704 0 176.458-111.256 318.466-265.676 318.466-51.886 0-100.652-26.958-117.35-58.796 0 0-25.672 97.766-31.894 121.71-11.564 44.468-42.768 100.218-63.642 134.226 47.91 14.832 98.818 22.832 151.604 22.832 282.768-0.002 511.996-229.23 511.996-512 0-282.766-229.228-511.996-511.994-511.996z"></path>
</symbol>
<symbol id="icon-deviantart" viewBox="0 0 1024 1024">
	<title>deviantart</title>
	<path class="path1" d="M561.856 407c-39.042-2.282-84.082 0.048-136.25 8.95l120.334 216.888 478.060-131.266c-5.154-12.26-12.686-24.226-22.662-35.798-49.474-57.278-156.74-108.374-273.604-131.418l0.002-0.026c-114.644-26.874-238.802-25.744-365.96-6.548-4.584 0.688-9.144 1.422-13.68 2.184l-42.272-78.292c-41.142 5.492-79.808 14.050-115.606 25.474l40.26 84.198c-65.76 25.476-119.722 61.76-158.658 105.432-64.212 73.064-89.59 164.908-58.746 254.352 6.204 18.042 14.588 35.16 24.936 51.196l478.068-131.298-132.75-245.848c4.558-0.88 9.196-1.768 13.928-2.624 214.682-38.298 332.102 20.864 396.416 83.83l-163.558 39.648-68.258-109.034zM174.722 626.39c-14.758-67.352-3.012-142.526 90.404-192.594l73.138 152.948-163.542 39.646z"></path>
</symbol>
<symbol id="icon-vimeo" viewBox="0 0 1024 1024">
	<title>vimeo</title>
	<path class="path1" d="M0 308.37l41.594 54.544c0 0 85.77-67.608 114.36-33.802 28.588 33.802 137.736 441.956 174.17 517.246 31.8 66.030 119.518 153.32 215.714 90.982 96.136-62.34 415.84-335.286 473.066-657.616 57.18-322.226-384.72-254.726-431.53 26.010 116.99-70.236 179.436 28.538 119.57 140.372-59.758 111.724-114.36 184.592-142.952 184.592-28.538 0-50.49-74.768-83.188-205.446-33.798-135.102-33.592-378.46-174.116-350.87-132.518 26.012-306.688 233.988-306.688 233.988z"></path>
</symbol>
<symbol id="icon-delicious" viewBox="0 0 1024 1024">
	<title>delicious</title>
	<path class="path1" d="M853.376 0h-682.69c-93.876 0-170.686 76.816-170.686 170.692v682.624c0 93.93 76.81 170.684 170.686 170.684h682.69c93.874 0 170.624-76.752 170.624-170.684v-682.624c0-93.876-76.75-170.692-170.624-170.692zM960 853.316c0 28.334-11.14 55.082-31.37 75.316-20.222 20.228-46.948 31.368-75.254 31.368h-341.376v-448h-448v-341.308c0-28.308 11.15-55.050 31.396-75.296 20.244-20.246 46.984-31.396 75.29-31.396h341.314v448h448v341.316z"></path>
</symbol>
<symbol id="icon-github4" viewBox="0 0 1024 1024">
	<title>github4</title>
	<path class="path1" d="M512 0c-282.77 0-512 229.23-512 512s229.23 512 512 512 512-229.23 512-512-229.23-512-512-512zM816.056 816.056c-39.518 39.516-85.512 70.532-136.708 92.186-13.006 5.5-26.214 10.328-39.6 14.492v-76.734c0-40.334-13.834-70-41.5-89 17.334-1.666 33.25-4 47.75-7s29.834-7.334 46-13 30.666-12.416 43.5-20.25 25.166-18 37-30.5 21.75-26.666 29.75-42.5 14.334-34.834 19-57 7-46.584 7-73.25c0-51.666-16.834-95.666-50.5-132 15.334-40 13.666-83.5-5-130.5l-12.5-1.5c-8.666-1-24.25 2.666-46.75 11s-47.75 22-75.75 41c-39.666-11-80.834-16.5-123.5-16.5-43 0-84 5.5-123 16.5-17.666-12-34.416-21.916-50.25-29.75s-28.5-13.166-38-16-18.334-4.584-26.5-5.25-13.416-0.834-15.75-0.5-4 0.666-5 1c-18.666 47.334-20.334 90.834-5 130.5-33.666 36.334-50.5 80.334-50.5 132 0 26.666 2.334 51.084 7 73.25s11 41.166 19 57 17.916 30 29.75 42.5 24.166 22.666 37 30.5 27.334 14.584 43.5 20.25 31.5 10 46 13 30.416 5.334 47.75 7c-27.334 18.666-41 48.334-41 89v78.23c-15.098-4.494-29.98-9.804-44.6-15.988-51.194-21.654-97.188-52.67-136.706-92.186-39.516-39.518-70.534-85.512-92.186-136.708-22.398-52.958-33.756-109.262-33.756-167.348s11.358-114.39 33.758-167.35c21.654-51.194 52.67-97.188 92.186-136.706s85.512-70.534 136.706-92.186c52.96-22.4 109.264-33.758 167.35-33.758s114.39 11.358 167.35 33.758c51.196 21.654 97.19 52.67 136.708 92.186 39.516 39.516 70.532 85.512 92.186 136.706 22.398 52.96 33.756 109.264 33.756 167.35s-11.358 114.39-33.758 167.35c-21.654 51.194-52.67 97.19-92.186 136.706z"></path>
</symbol>
<symbol id="icon-codepen" viewBox="0 0 1024 1024">
	<title>codepen</title>
	<path class="path1" d="M945.75 368.042l-448-298.666c-10.748-7.166-24.752-7.166-35.5 0l-448 298.666c-8.902 5.934-14.25 15.926-14.25 26.624v298.666c0 10.7 5.348 20.692 14.25 26.624l448 298.666c5.374 3.584 11.562 5.376 17.75 5.376s12.376-1.792 17.75-5.376l448-298.666c8.902-5.934 14.25-15.926 14.25-26.624v-298.666c0-10.698-5.348-20.69-14.25-26.624zM480 654.876l-166.312-110.876 166.312-110.874 166.312 110.874-166.312 110.876zM512 377.542v-221.75l358.31 238.876-166.31 110.874-192-128zM448 377.542l-192 128-166.312-110.874 358.312-238.876v221.75zM198.312 544l-134.312 89.542v-179.082l134.312 89.54zM256 582.458l192 128v221.748l-358.312-238.872 166.312-110.876zM512 710.458l192-128 166.312 110.876-358.312 238.874v-221.75zM761.688 544l134.312-89.54v179.084l-134.312-89.544z"></path>
</symbol>
<symbol id="icon-linkedin2" viewBox="0 0 1024 1024">
	<title>linkedin2</title>
	<path class="path1" d="M384 384h177.106v90.782h2.532c24.64-44.194 84.958-90.782 174.842-90.782 186.946 0 221.52 116.376 221.52 267.734v308.266h-184.61v-273.278c0-65.184-1.334-149.026-96.028-149.026-96.148 0-110.82 70.986-110.82 144.292v278.012h-184.542v-576z"></path>
	<path class="path2" d="M64 384h192v576h-192v-576z"></path>
	<path class="path3" d="M256 224c0 53.019-42.981 96-96 96s-96-42.981-96-96c0-53.019 42.981-96 96-96s96 42.981 96 96z"></path>
</symbol>
<symbol id="icon-foursquare" viewBox="0 0 1024 1024">
	<title>foursquare</title>
	<path class="path1" d="M851.564 90.090c-12.060-16.404-31.204-26.090-51.564-26.090h-608c-35.346 0-64 28.654-64 64v768c0 25.884 15.592 49.222 39.508 59.128 7.918 3.28 16.234 4.874 24.478 4.874 16.656 0 33.026-6.504 45.268-18.748l237.256-237.254h165.49c27.992 0 52.736-18.192 61.086-44.91l160-512c6.074-19.432 2.538-40.596-9.522-57zM672.948 320h-224.948c-35.346 0-64 28.654-64 64s28.654 64 64 64h184.948l-40 128h-144.948c-16.974 0-33.252 6.742-45.254 18.746l-146.746 146.744v-549.49h456.948l-40 128z"></path>
</symbol>
<symbol id="icon-reddit" viewBox="0 0 1024 1024">
	<title>reddit</title>
	<path class="path1" d="M256 640c0-35.346 28.654-64 64-64s64 28.654 64 64c0 35.346-28.654 64-64 64s-64-28.654-64-64zM640 640c0-35.346 28.654-64 64-64s64 28.654 64 64c0 35.346-28.654 64-64 64s-64-28.654-64-64zM643.112 776.778c16.482-12.986 40.376-10.154 53.364 6.332s10.152 40.378-6.334 53.366c-45.896 36.158-115.822 59.524-178.142 59.524-62.322 0-132.248-23.366-178.144-59.522-16.486-12.99-19.32-36.882-6.332-53.368 12.99-16.482 36.882-19.318 53.366-6.332 26.422 20.818 78.722 43.222 131.11 43.222s104.688-22.404 131.112-43.222zM1024 512c0-70.692-57.308-128-128-128-48.116 0-89.992 26.57-111.852 65.82-65.792-35.994-145.952-59.246-233.28-64.608l76.382-171.526 146.194 42.2c13.152 37.342 48.718 64.114 90.556 64.114 53.020 0 96-42.98 96-96s-42.98-96-96-96c-36.56 0-68.342 20.442-84.554 50.514l-162.906-47.024c-18.224-5.258-37.538 3.722-45.252 21.052l-103.77 233.026c-85.138 5.996-163.262 29.022-227.636 64.236-21.864-39.25-63.766-65.804-111.882-65.804-70.692 0-128 57.308-128 128 0 52.312 31.402 97.254 76.372 117.102-8.070 24.028-12.372 49.104-12.372 74.898 0 176.73 200.576 320 448 320 247.422 0 448-143.27 448-320 0-25.792-4.3-50.862-12.368-74.886 44.97-19.85 76.368-64.802 76.368-117.114zM864 188c19.882 0 36 16.118 36 36s-16.118 36-36 36-36-16.118-36-36 16.118-36 36-36zM64 512c0-35.29 28.71-64 64-64 25.508 0 47.572 15.004 57.846 36.646-33.448 25.366-61.166 54.626-81.666 86.738-23.524-9.47-40.18-32.512-40.18-59.384zM512 948c-205.45 0-372-109.242-372-244s166.55-244 372-244c205.45 0 372 109.242 372 244s-166.55 244-372 244zM919.82 571.384c-20.5-32.112-48.218-61.372-81.666-86.738 10.276-21.642 32.338-36.646 57.846-36.646 35.29 0 64 28.71 64 64 0 26.872-16.656 49.914-40.18 59.384z"></path>
</symbol>
<symbol id="icon-stackoverflow" viewBox="0 0 1024 1024">
	<title>stackoverflow</title>
	<path class="path1" d="M1024 640v384h-1024v-384h128v256h768v-256zM192 704h640v128h-640zM207.152 565.466l27.698-124.964 624.832 138.496-27.698 124.964zM279.658 308.558l54.092-116.006 580.032 270.464-54.092 116.006zM991.722 361.476l-77.922 101.55-507.746-389.608 56.336-73.418h58.244z"></path>
</symbol>
</defs>
</svg>
