<svg display="none" width="0" height="0" version="1.1" xmlns="http://www.w3.org/2000/svg">
<defs>
<symbol id="icon-cubes" viewBox="0 0 1317 1024">
	<title>cubes</title>
	<path class="path1" d="M365.714 932.571l219.429-109.714v-179.429l-219.429 93.714v195.429zM329.143 673.143l230.857-98.857-230.857-98.857-230.857 98.857zM950.857 932.571l219.429-109.714v-179.429l-219.429 93.714v195.429zM914.286 673.143l230.857-98.857-230.857-98.857-230.857 98.857zM658.286 505.714l219.429-94.286v-152l-219.429 93.714v152.571zM621.714 289.143l252-108-252-108-252 108zM1243.429 585.143v237.714q0 20.571-10.857 38.286t-29.714 26.857l-256 128q-14.286 8-32.571 8t-32.571-8l-256-128q-2.857-1.143-4-2.286-1.143 1.143-4 2.286l-256 128q-14.286 8-32.571 8t-32.571-8l-256-128q-18.857-9.143-29.714-26.857t-10.857-38.286v-237.714q0-21.714 12.286-40t32.286-27.429l248-106.286v-228.571q0-21.714 12.286-40t32.286-27.429l256-109.714q13.143-5.714 28.571-5.714t28.571 5.714l256 109.714q20 9.143 32.286 27.429t12.286 40v228.571l248 106.286q20.571 9.143 32.571 27.429t12 40z"></path>
</symbol>
<symbol id="icon-connectdevelop" viewBox="0 0 1170 1024">
	<title>connectdevelop</title>
	<path class="path1" d="M1170.286 511.429q0 12-7.429 20.857t-18.857 11.143l-117.143 203.429q1.714 5.143 1.714 10.286 0 11.429-7.143 20.286t-18.571 11.143l-110.286 192.571q1.714 4.571 1.714 9.143 0 13.143-9.429 22.857t-23.143 9.714q-14.286 0-23.429-10.286h-228.571q-9.714 11.429-24.571 11.429t-24.571-11.429h-228q-9.714 11.429-24.571 11.429-13.143 0-22.857-9.429t-9.714-23.143q0-4.571 2.286-11.429l-110.286-191.429q-11.429-2.286-18.571-11.143t-7.143-20.286q0-5.143 1.714-10.286l-117.714-203.429q-11.429-2.857-18.571-11.714t-7.143-20.286q0-12 7.714-20.857t19.143-11.143l113.714-196.571q0-0.571-0.286-1.714t-0.286-1.714q0-20.571 19.429-29.143l119.429-207.429q-2.286-5.714-2.286-10.286 0-13.714 9.714-23.143t22.857-9.429q14.857 0 25.143 12h226.286q9.143-12 24.571-12t24.571 12h227.429q10.286-12 25.143-12 13.143 0 22.857 9.429t9.714 23.143q0 3.429-2.286 10.286l118.286 204.571q13.143 0.571 22.286 10t9.143 22q0 7.429-4 15.429l106.857 185.143q10.857 2.286 18 11.143t7.143 20.286zM607.429 968h222.286l-195.429-202.286h-81.714l-195.429 202.286h205.714q10.286-9.143 22.286-9.143t22.286 9.143zM64 504q0.571 2.286 0.571 7.429 0 5.714-1.143 8.571l118.857 205.714q1.143 0 2.571 0.571t3.143 1.429l2.857 1.429 107.429-113.714v-198.286l-106.857-110.857q-7.429 4.571-16.571 5.714zM563.429 56h-221.714l108.571 114.286 316.571-114.286h-160q-9.143 9.143-21.714 9.143t-21.714-9.143zM965.143 748.571q0.571-3.429 2.857-6.286l-36.571-38.857-9.714 45.143h43.429zM904.571 748.571l12.571-60-144-152-169.143 175.429 36 36.571h264.571zM854.286 958.857l9.143-16 37.143-177.143h-244l190.286 196q4.571-2.286 7.429-2.857zM330.286 968h2.857l195.429-202.286h-213.143v191.429l2.286 3.429q8 2.857 12.571 7.429zM315.429 748.571h229.714l36.571-37.714-176.571-183.429-89.714 94.857v126.286zM205.143 748.571h93.143v-108l-96 101.143q2.286 4.571 2.857 6.857zM204.571 277.143q0 0.571 0.286 1.143t0.286 1.143q0 9.143-4.571 16.571l97.714 101.143v-153.714zM315.429 237.143v177.714l87.429 89.714 169.714-179.429-127.429-134.857zM317.714 63.429l-2.286 4.571v150.857l117.143-42.286-109.143-114.857q-3.429 1.143-5.714 1.714zM826.857 56h-9.143l-354.857 128 121.714 128.571zM584.571 337.143l-169.714 180 177.714 182.286 169.143-175.429zM393.143 515.429l-77.714-80.571v162.286zM593.143 723.429l-24 25.143h48.571zM785.143 524.571l136 143.429 75.429-356.571-1.714-2.857-0.571-0.571zM981.714 296q-4.571-7.429-4.571-16.571v-1.143l-123.429-214.857q-2.857-0.571-7.429-2.857l-249.714 264.571 177.143 186.857zM298.286 225.143v-127.429l-93.143 161.143zM298.286 765.714h-93.143l93.143 161.714v-161.714zM918.286 765.714l-27.429 129.714 74.286-129.714h-46.857zM988 725.714l118.286-206.286q-1.143-5.714-1.143-8 0-0.571 1.714-9.143l-97.714-169.143-73.714 349.714 44 46.857q2.857-1.714 8.571-4z"></path>
</symbol>
<symbol id="icon-street-view" viewBox="0 0 1024 1024">
	<title>street-view</title>
	<path class="path1" d="M804.571 877.714q0 36-35.143 64.857t-93.714 46.286-128.571 26.286-144.857 8.857-144.857-8.857-128.571-26.286-93.714-46.286-35.143-64.857q0-28 18.857-50.571t52-38 67.429-25.429 74.857-16.857q14.857-2.857 27.429 6t14.857 23.714q2.857 14.857-6 27.429t-23.714 14.857q-33.143 5.714-60.571 13.429t-43.714 14.571-27.714 13.429-15.714 11.143-4.857 6.857q1.714 6.286 15.429 15.143t41.714 18.857 65.143 18.571 91.714 14.286 115.143 5.714 115.143-5.714 91.714-14.286 65.143-18.857 41.714-19.143 15.429-15.714q-0.571-2.286-4.857-6.286t-15.714-10.857-27.714-13.429-43.714-14.286-60.571-13.429q-14.857-2.286-23.714-14.857t-6-27.429q2.286-14.857 14.857-23.714t27.429-6q40.571 6.857 74.857 16.857t67.429 25.429 52 38 18.857 50.571zM585.143 365.714v219.429q0 14.857-10.857 25.714t-25.714 10.857h-36.571v219.429q0 14.857-10.857 25.714t-25.714 10.857h-146.286q-14.857 0-25.714-10.857t-10.857-25.714v-219.429h-36.571q-14.857 0-25.714-10.857t-10.857-25.714v-219.429q0-30.286 21.429-51.714t51.714-21.429h219.429q30.286 0 51.714 21.429t21.429 51.714zM530.286 146.286q0 53.143-37.429 90.571t-90.571 37.429-90.571-37.429-37.429-90.571 37.429-90.571 90.571-37.429 90.571 37.429 37.429 90.571z"></path>
</symbol>
<symbol id="icon-facebook" viewBox="0 0 1024 1024">
	<title>facebook</title>
	<path class="path1" d="M672 192c-88.366 0-160 71.634-160 160v96h-128v128h128v448h128v-448h144l32-128h-176v-96c0-17.672 14.326-32 32-32h160v-128h-160z"></path>
</symbol>
<symbol id="icon-twitter" viewBox="0 0 1024 1024">
	<title>twitter</title>
	<path class="path1" d="M1024 194.418c-37.676 16.708-78.164 28.002-120.66 33.080 43.372-26 76.686-67.17 92.372-116.23-40.596 24.078-85.556 41.56-133.41 50.98-38.32-40.83-92.922-66.34-153.346-66.34-116.022 0-210.088 94.058-210.088 210.078 0 16.466 1.858 32.5 5.44 47.878-174.6-8.764-329.402-92.4-433.018-219.506-18.084 31.028-28.446 67.116-28.446 105.618 0 72.888 37.088 137.192 93.46 174.866-34.438-1.092-66.832-10.542-95.154-26.278-0.020 0.876-0.020 1.756-0.020 2.642 0 101.788 72.418 186.696 168.522 206-17.626 4.8-36.188 7.372-55.348 7.372-13.538 0-26.698-1.32-39.528-3.772 26.736 83.46 104.32 144.206 196.252 145.896-71.9 56.35-162.486 89.934-260.916 89.934-16.958 0-33.68-0.994-50.116-2.94 92.972 59.61 203.402 94.394 322.042 94.394 386.422 0 597.736-320.124 597.736-597.744 0-9.108-0.206-18.168-0.61-27.18 41.056-29.62 76.672-66.62 104.836-108.748z"></path>
</symbol>
<symbol id="icon-google-plus" viewBox="0 0 1024 1024">
	<title>google-plus</title>
	<path class="path1" d="M559.066 64c0 0-200.956 0-267.94 0-120.12 0-233.17 91.006-233.17 196.422 0 107.726 81.882 194.666 204.088 194.666 8.498 0 16.756-0.17 24.842-0.752-7.93 15.186-13.602 32.288-13.602 50.042 0 29.938 16.104 54.21 36.468 74.024-15.386 0-30.242 0.448-46.452 0.448-148.782-0.002-263.3 94.758-263.3 193.020 0 96.778 125.542 157.314 274.334 157.314 169.624 0 263.306-96.244 263.306-193.028 0-77.6-22.896-124.072-93.686-174.134-24.216-17.144-70.53-58.836-70.53-83.344 0-28.72 8.196-42.868 51.428-76.646 44.312-34.624 75.672-83.302 75.672-139.916 0-67.406-30.020-133.098-86.372-154.772h84.954l59.96-43.344zM465.48 719.458c2.126 8.972 3.284 18.206 3.284 27.628 0 78.2-50.392 139.31-194.974 139.31-102.842 0-177.116-65.104-177.116-143.3 0-76.642 92.126-140.444 194.964-139.332 24 0.254 46.368 4.116 66.67 10.69 55.826 38.826 95.876 60.762 107.172 105.004zM300.818 427.776c-69.038-2.064-134.636-77.226-146.552-167.86-11.916-90.666 34.37-160.042 103.388-157.99 69.010 2.074 134.638 74.814 146.558 165.458 11.906 90.66-34.39 162.458-103.394 160.392zM832 256v-192h-64v192h-192v64h192v192h64v-192h192v-64z"></path>
</symbol>
<symbol id="icon-instagram" viewBox="0 0 1024 1024">
	<title>instagram</title>
	<path class="path1" d="M854 0h-684c-93.5 0-170 76.5-170 170v684c0 93.5 76.5 170 170 170h684c93.5 0 170-76.5 170-170v-684c0-93.5-76.5-170-170-170zM327.8 448h368.4c6.988 20.058 10.8 41.59 10.8 64 0 107.524-87.476 195-195 195s-195-87.476-195-195c0-22.41 3.812-43.942 10.8-64zM896 448.050v383.95c0 35.2-28.8 64-64 64h-640c-35.2 0-64-28.8-64-64v-384h100.108c-4.642 20.602-7.108 42.016-7.108 64 0 160.458 130.542 291 291 291s291-130.542 291-291c0-21.984-2.464-43.398-7.108-64l100.108 0.050zM896 224c0 17.6-14.4 32-32 32h-64c-17.6 0-32-14.4-32-32v-64c0-17.6 14.4-32 32-32h64c17.6 0 32 14.4 32 32v64z"></path>
</symbol>
<symbol id="icon-dribbble" viewBox="0 0 1024 1024">
	<title>dribbble</title>
	<path class="path1" d="M512.002 1024c-282.32 0-512.002-229.682-512.002-512s229.682-512 512.002-512c282.322 0 511.998 229.682 511.998 512s-229.676 512-511.998 512zM943.798 582.086c-14.962-4.72-135.364-40.632-272.41-18.698 57.204 157.186 80.478 285.208 84.958 311.808 98.114-66.336 167.958-171.426 187.452-293.11zM682.832 915.238c-6.506-38.37-31.898-172.090-93.298-331.64-0.96 0.328-1.922 0.64-2.88 0.972-246.67 85.958-335.216 257.016-343.086 273.104 74.15 57.824 167.336 92.32 268.436 92.32 60.58 0 118.318-12.39 170.828-34.756zM187.098 805.078c9.908-16.96 129.93-215.684 355.476-288.594 5.704-1.84 11.448-3.57 17.236-5.2-10.98-24.844-22.94-49.714-35.456-74.216-218.398 65.36-430.324 62.63-449.46 62.236-0.132 4.442-0.222 8.89-0.222 13.366 0 112.32 42.58 214.874 112.426 292.408zM83.912 423.096c19.558 0.26 199.736 1.042 404.302-53.282-72.46-128.812-150.612-237.11-162.142-252.92-122.348 57.708-213.802 170.496-242.16 306.202zM409.518 87.5c12.088 16.184 91.518 124.348 163.18 256.014 155.508-58.284 221.34-146.77 229.208-157.974-77.23-68.518-178.782-110.2-289.902-110.2-35.29 0-69.6 4.232-102.486 12.16zM850.522 236.112c-9.216 12.474-82.504 106.418-244.202 172.434 10.178 20.832 19.934 42.018 29.016 63.344 3.216 7.56 6.354 15.084 9.418 22.57 145.518-18.298 290.104 11.028 304.526 14.078-0.968-103.224-37.85-198.010-98.758-272.426z"></path>
</symbol>
<symbol id="icon-pinterest" viewBox="0 0 1024 1024">
	<title>pinterest</title>
	<path class="path1" d="M512.006 0.002c-282.774 0-512.006 229.23-512.006 511.996 0 216.906 134.952 402.166 325.414 476.772-4.478-40.508-8.518-102.644 1.774-146.876 9.298-39.954 60.040-254.5 60.040-254.5s-15.32-30.664-15.32-76.008c0-71.19 41.268-124.336 92.644-124.336 43.68 0 64.784 32.794 64.784 72.12 0 43.928-27.964 109.604-42.404 170.464-12.060 50.972 25.556 92.536 75.814 92.536 91.008 0 160.958-95.96 160.958-234.466 0-122.584-88.088-208.298-213.868-208.298-145.678 0-231.186 109.274-231.186 222.19 0 44.008 16.95 91.196 38.102 116.844 4.182 5.070 4.792 9.516 3.548 14.68-3.884 16.18-12.522 50.96-14.216 58.076-2.234 9.368-7.422 11.356-17.124 6.842-63.95-29.77-103.926-123.264-103.926-198.348 0-161.51 117.348-309.834 338.294-309.834 177.61 0 315.634 126.56 315.634 295.704 0 176.458-111.256 318.466-265.676 318.466-51.886 0-100.652-26.958-117.35-58.796 0 0-25.672 97.766-31.894 121.71-11.564 44.468-42.768 100.218-63.642 134.226 47.91 14.832 98.818 22.832 151.604 22.832 282.768-0.002 511.996-229.23 511.996-512 0-282.766-229.228-511.996-511.994-511.996z"></path>
</symbol>
<symbol id="icon-deviantart" viewBox="0 0 1024 1024">
	<title>deviantart</title>
	<path class="path1" d="M561.856 407c-39.042-2.282-84.082 0.048-136.25 8.95l120.334 216.888 478.060-131.266c-5.154-12.26-12.686-24.226-22.662-35.798-49.474-57.278-156.74-108.374-273.604-131.418l0.002-0.026c-114.644-26.874-238.802-25.744-365.96-6.548-4.584 0.688-9.144 1.422-13.68 2.184l-42.272-78.292c-41.142 5.492-79.808 14.050-115.606 25.474l40.26 84.198c-65.76 25.476-119.722 61.76-158.658 105.432-64.212 73.064-89.59 164.908-58.746 254.352 6.204 18.042 14.588 35.16 24.936 51.196l478.068-131.298-132.75-245.848c4.558-0.88 9.196-1.768 13.928-2.624 214.682-38.298 332.102 20.864 396.416 83.83l-163.558 39.648-68.258-109.034zM174.722 626.39c-14.758-67.352-3.012-142.526 90.404-192.594l73.138 152.948-163.542 39.646z"></path>
</symbol>
<symbol id="icon-vimeo" viewBox="0 0 1024 1024">
	<title>vimeo</title>
	<path class="path1" d="M0 308.37l41.594 54.544c0 0 85.77-67.608 114.36-33.802 28.588 33.802 137.736 441.956 174.17 517.246 31.8 66.030 119.518 153.32 215.714 90.982 96.136-62.34 415.84-335.286 473.066-657.616 57.18-322.226-384.72-254.726-431.53 26.010 116.99-70.236 179.436 28.538 119.57 140.372-59.758 111.724-114.36 184.592-142.952 184.592-28.538 0-50.49-74.768-83.188-205.446-33.798-135.102-33.592-378.46-174.116-350.87-132.518 26.012-306.688 233.988-306.688 233.988z"></path>
</symbol>
<symbol id="icon-delicious" viewBox="0 0 1024 1024">
	<title>delicious</title>
	<path class="path1" d="M853.376 0h-682.69c-93.876 0-170.686 76.816-170.686 170.692v682.624c0 93.93 76.81 170.684 170.686 170.684h682.69c93.874 0 170.624-76.752 170.624-170.684v-682.624c0-93.876-76.75-170.692-170.624-170.692zM960 853.316c0 28.334-11.14 55.082-31.37 75.316-20.222 20.228-46.948 31.368-75.254 31.368h-341.376v-448h-448v-341.308c0-28.308 11.15-55.050 31.396-75.296 20.244-20.246 46.984-31.396 75.29-31.396h341.314v448h448v341.316z"></path>
</symbol>
<symbol id="icon-github4" viewBox="0 0 1024 1024">
	<title>github4</title>
	<path class="path1" d="M512 0c-282.77 0-512 229.23-512 512s229.23 512 512 512 512-229.23 512-512-229.23-512-512-512zM816.056 816.056c-39.518 39.516-85.512 70.532-136.708 92.186-13.006 5.5-26.214 10.328-39.6 14.492v-76.734c0-40.334-13.834-70-41.5-89 17.334-1.666 33.25-4 47.75-7s29.834-7.334 46-13 30.666-12.416 43.5-20.25 25.166-18 37-30.5 21.75-26.666 29.75-42.5 14.334-34.834 19-57 7-46.584 7-73.25c0-51.666-16.834-95.666-50.5-132 15.334-40 13.666-83.5-5-130.5l-12.5-1.5c-8.666-1-24.25 2.666-46.75 11s-47.75 22-75.75 41c-39.666-11-80.834-16.5-123.5-16.5-43 0-84 5.5-123 16.5-17.666-12-34.416-21.916-50.25-29.75s-28.5-13.166-38-16-18.334-4.584-26.5-5.25-13.416-0.834-15.75-0.5-4 0.666-5 1c-18.666 47.334-20.334 90.834-5 130.5-33.666 36.334-50.5 80.334-50.5 132 0 26.666 2.334 51.084 7 73.25s11 41.166 19 57 17.916 30 29.75 42.5 24.166 22.666 37 30.5 27.334 14.584 43.5 20.25 31.5 10 46 13 30.416 5.334 47.75 7c-27.334 18.666-41 48.334-41 89v78.23c-15.098-4.494-29.98-9.804-44.6-15.988-51.194-21.654-97.188-52.67-136.706-92.186-39.516-39.518-70.534-85.512-92.186-136.708-22.398-52.958-33.756-109.262-33.756-167.348s11.358-114.39 33.758-167.35c21.654-51.194 52.67-97.188 92.186-136.706s85.512-70.534 136.706-92.186c52.96-22.4 109.264-33.758 167.35-33.758s114.39 11.358 167.35 33.758c51.196 21.654 97.19 52.67 136.708 92.186 39.516 39.516 70.532 85.512 92.186 136.706 22.398 52.96 33.756 109.264 33.756 167.35s-11.358 114.39-33.758 167.35c-21.654 51.194-52.67 97.19-92.186 136.706z"></path>
</symbol>
<symbol id="icon-codepen" viewBox="0 0 1024 1024">
	<title>codepen</title>
	<path class="path1" d="M945.75 368.042l-448-298.666c-10.748-7.166-24.752-7.166-35.5 0l-448 298.666c-8.902 5.934-14.25 15.926-14.25 26.624v298.666c0 10.7 5.348 20.692 14.25 26.624l448 298.666c5.374 3.584 11.562 5.376 17.75 5.376s12.376-1.792 17.75-5.376l448-298.666c8.902-5.934 14.25-15.926 14.25-26.624v-298.666c0-10.698-5.348-20.69-14.25-26.624zM480 654.876l-166.312-110.876 166.312-110.874 166.312 110.874-166.312 110.876zM512 377.542v-221.75l358.31 238.876-166.31 110.874-192-128zM448 377.542l-192 128-166.312-110.874 358.312-238.876v221.75zM198.312 544l-134.312 89.542v-179.082l134.312 89.54zM256 582.458l192 128v221.748l-358.312-238.872 166.312-110.876zM512 710.458l192-128 166.312 110.876-358.312 238.874v-221.75zM761.688 544l134.312-89.54v179.084l-134.312-89.544z"></path>
</symbol>
<symbol id="icon-linkedin2" viewBox="0 0 1024 1024">
	<title>linkedin2</title>
	<path class="path1" d="M384 384h177.106v90.782h2.532c24.64-44.194 84.958-90.782 174.842-90.782 186.946 0 221.52 116.376 221.52 267.734v308.266h-184.61v-273.278c0-65.184-1.334-149.026-96.028-149.026-96.148 0-110.82 70.986-110.82 144.292v278.012h-184.542v-576z"></path>
	<path class="path2" d="M64 384h192v576h-192v-576z"></path>
	<path class="path3" d="M256 224c0 53.019-42.981 96-96 96s-96-42.981-96-96c0-53.019 42.981-96 96-96s96 42.981 96 96z"></path>
</symbol>
<symbol id="icon-foursquare" viewBox="0 0 1024 1024">
	<title>foursquare</title>
	<path class="path1" d="M851.564 90.090c-12.060-16.404-31.204-26.090-51.564-26.090h-608c-35.346 0-64 28.654-64 64v768c0 25.884 15.592 49.222 39.508 59.128 7.918 3.28 16.234 4.874 24.478 4.874 16.656 0 33.026-6.504 45.268-18.748l237.256-237.254h165.49c27.992 0 52.736-18.192 61.086-44.91l160-512c6.074-19.432 2.538-40.596-9.522-57zM672.948 320h-224.948c-35.346 0-64 28.654-64 64s28.654 64 64 64h184.948l-40 128h-144.948c-16.974 0-33.252 6.742-45.254 18.746l-146.746 146.744v-549.49h456.948l-40 128z"></path>
</symbol>
<symbol id="icon-reddit" viewBox="0 0 1024 1024">
	<title>reddit</title>
	<path class="path1" d="M256 640c0-35.346 28.654-64 64-64s64 28.654 64 64c0 35.346-28.654 64-64 64s-64-28.654-64-64zM640 640c0-35.346 28.654-64 64-64s64 28.654 64 64c0 35.346-28.654 64-64 64s-64-28.654-64-64zM643.112 776.778c16.482-12.986 40.376-10.154 53.364 6.332s10.152 40.378-6.334 53.366c-45.896 36.158-115.822 59.524-178.142 59.524-62.322 0-132.248-23.366-178.144-59.522-16.486-12.99-19.32-36.882-6.332-53.368 12.99-16.482 36.882-19.318 53.366-6.332 26.422 20.818 78.722 43.222 131.11 43.222s104.688-22.404 131.112-43.222zM1024 512c0-70.692-57.308-128-128-128-48.116 0-89.992 26.57-111.852 65.82-65.792-35.994-145.952-59.246-233.28-64.608l76.382-171.526 146.194 42.2c13.152 37.342 48.718 64.114 90.556 64.114 53.020 0 96-42.98 96-96s-42.98-96-96-96c-36.56 0-68.342 20.442-84.554 50.514l-162.906-47.024c-18.224-5.258-37.538 3.722-45.252 21.052l-103.77 233.026c-85.138 5.996-163.262 29.022-227.636 64.236-21.864-39.25-63.766-65.804-111.882-65.804-70.692 0-128 57.308-128 128 0 52.312 31.402 97.254 76.372 117.102-8.070 24.028-12.372 49.104-12.372 74.898 0 176.73 200.576 320 448 320 247.422 0 448-143.27 448-320 0-25.792-4.3-50.862-12.368-74.886 44.97-19.85 76.368-64.802 76.368-117.114zM864 188c19.882 0 36 16.118 36 36s-16.118 36-36 36-36-16.118-36-36 16.118-36 36-36zM64 512c0-35.29 28.71-64 64-64 25.508 0 47.572 15.004 57.846 36.646-33.448 25.366-61.166 54.626-81.666 86.738-23.524-9.47-40.18-32.512-40.18-59.384zM512 948c-205.45 0-372-109.242-372-244s166.55-244 372-244c205.45 0 372 109.242 372 244s-166.55 244-372 244zM919.82 571.384c-20.5-32.112-48.218-61.372-81.666-86.738 10.276-21.642 32.338-36.646 57.846-36.646 35.29 0 64 28.71 64 64 0 26.872-16.656 49.914-40.18 59.384z"></path>
</symbol>
<symbol id="icon-stackoverflow" viewBox="0 0 1024 1024">
	<title>stackoverflow</title>
	<path class="path1" d="M1024 640v384h-1024v-384h128v256h768v-256zM192 704h640v128h-640zM207.152 565.466l27.698-124.964 624.832 138.496-27.698 124.964zM279.658 308.558l54.092-116.006 580.032 270.464-54.092 116.006zM991.722 361.476l-77.922 101.55-507.746-389.608 56.336-73.418h58.244z"></path>
</symbol>
<symbol id="icon-angle-left" viewBox="0 0 366 1024">
	<title>angle-left</title>
	<path class="path1" d="M358.286 310.857q0 7.429-5.714 13.143l-224.571 224.571 224.571 224.571q5.714 5.714 5.714 13.143t-5.714 13.143l-28.571 28.571q-5.714 5.714-13.143 5.714t-13.143-5.714l-266.286-266.286q-5.714-5.714-5.714-13.143t5.714-13.143l266.286-266.286q5.714-5.714 13.143-5.714t13.143 5.714l28.571 28.571q5.714 5.714 5.714 13.143z"></path>
</symbol>
<symbol id="icon-angle-right" viewBox="0 0 366 1024">
	<title>angle-right</title>
	<path class="path1" d="M340 548.571q0 7.429-5.714 13.143l-266.286 266.286q-5.714 5.714-13.143 5.714t-13.143-5.714l-28.571-28.571q-5.714-5.714-5.714-13.143t5.714-13.143l224.571-224.571-224.571-224.571q-5.714-5.714-5.714-13.143t5.714-13.143l28.571-28.571q5.714-5.714 13.143-5.714t13.143 5.714l266.286 266.286q5.714 5.714 5.714 13.143z"></path>
</symbol>
<symbol id="icon-angularjs" viewBox="0 0 128 128">
<path d="M52.864 64h23.28l-12.375-25.877zM63.81 1.026l-59.257 20.854 9.363 77.637 49.957 27.457 50.214-27.828 9.36-77.635-59.637-20.485zm-15.766 73.974l-7.265 18.176-13.581.056 36.608-81.079-.07-.153h-.064l.001-.133.063.133h.14100000000000001l.123-.274v.274h-.124l-.069.153 38.189 81.417-13.074-.287-8.042-18.58-17.173.082"></path>
</symbol>
<symbol id="icon-backbonejs" viewBox="0 0 128 128">
<path d="M64 31.124l-49-27.885v121.52199999999999l49-27.885 49 27.885v-121.52199999999999l-49 27.885zm-23.286 32.875l24.369-13.89 24.368 13.89-24.368 13.892-24.369-13.892zm-8.714-34.065l17.433 9.937-17.433 9.938v-19.875zm0 48.257l16.126 9.191-16.126 9.193v-18.384zm65 18.384l-16.127-9.192 16.127-9.192v18.384zm-17.434-56.705l17.434-9.936v19.875l-17.434-9.939z"></path>
</symbol>
<symbol id="icon-ruby" viewBox="0 0 128 128">
<path fill-rule="evenodd" clip-rule="evenodd" d="M35.971 111.33c27.466 3.75 54.444 7.433 81.958 11.188-9.374-15.606-18.507-30.813-27.713-46.144l-54.245 34.956zM125.681 24.947c-2.421 3.636-4.847 7.269-7.265 10.907-8.304 12.493-16.607 24.986-24.903 37.485-.462.696-1.061 1.248-.41 2.321 8.016 13.237 15.969 26.513 23.942 39.777 1.258 2.095 2.53 4.182 4.157 6.192 1.612-32.193 3.223-64.387 4.834-96.58l-.355-.102zM16.252 66.22c.375.355 1.311.562 1.747.347 7.689-3.779 15.427-7.474 22.948-11.564 2.453-1.333 4.339-3.723 6.452-5.661 6.997-6.417 13.983-12.847 20.966-19.278.427-.395.933-.777 1.188-1.275 2.508-4.902 4.973-9.829 7.525-14.898-3.043-1.144-5.928-2.263-8.849-3.281-.396-.138-1.02.136-1.449.375-6.761 3.777-13.649 7.353-20.195 11.472-3.275 2.061-5.943 5.098-8.843 7.743-4.674 4.266-9.342 8.542-13.948 12.882-1.222 1.152-2.336 2.468-3.288 3.854-3.15 4.587-6.206 9.24-9.402 14.025 1.786 1.847 3.41 3.613 5.148 5.259zM44.354 59.949c-3.825 16.159-7.627 32.227-11.556 48.823 18.423-11.871 36.421-23.468 54.3-34.987-14.228-4.605-28.41-9.196-42.744-13.836zM120.985 25.103c-15.566 2.601-30.76 5.139-46.15 7.71 5.242 12.751 10.379 25.246 15.662 38.096 10.221-15.359 20.24-30.41 30.488-45.806zM44.996 56.644c14.017 4.55 27.755 9.01 41.892 13.6-5.25-12.79-10.32-25.133-15.495-37.737-8.815 8.059-17.498 15.999-26.397 24.137zM16.831 75.643c-4.971 11.883-9.773 23.362-14.662 35.048 9.396-.278 18.504-.547 27.925-.825-4.423-11.412-8.759-22.6-13.263-34.223zM30.424 101.739l.346-.076c3.353-13.941 6.754-27.786 10.177-42.272-7.636 3.969-14.92 7.754-22.403 11.644 3.819 9.926 7.891 20.397 11.88 30.704zM115.351 22.842c-4.459-1.181-8.918-2.366-13.379-3.539-6.412-1.686-12.829-3.351-19.237-5.052-.801-.213-1.38-.352-1.851.613-2.265 4.64-4.6 9.245-6.901 13.868-.071.143-.056.328-.111.687 13.886-2.104 27.679-4.195 41.47-6.285l.009-.292zM89.482 12.288l36.343 10.054c-2.084-5.939-4.017-11.446-6.005-17.11l-30.285 6.715-.053.341zM33.505 114.007c-4.501-.519-9.122-.042-13.687.037-3.75.063-7.5.206-11.25.323-.386.012-.771.09-1.156.506 31.003 2.866 62.005 5.732 93.007 8.6l.063-.414c-9.938-1.357-19.877-2.714-29.815-4.07-12.384-1.691-24.747-3.551-37.162-4.982zM2.782 99.994c3.995-9.27 7.973-18.546 11.984-27.809.401-.929.37-1.56-.415-2.308-1.678-1.597-3.237-3.318-5.071-5.226-2.479 12.24-4.897 24.177-7.317 36.113l.271.127c.185-.297.411-.578.548-.897zM81.522 9.841c6.737-1.738 13.572-3.097 20.367-4.613.44-.099.87-.244 1.303-.368l-.067-.332c-9.571 1.287-19.141 2.575-29.194 3.928 2.741 1.197 4.853 2.091 7.591 1.385z"></path>
</symbol>
<symbol id="icon-rails" viewBox="0 0 128 128">
<path fill-rule="evenodd" clip-rule="evenodd" d="M109.682 14.737c-12.206-6.023-24.708-6.636-37.508-2.111-11.779 4.164-21.175 11.615-28.16 21.763-11.819 17.172-20.404 35.909-25.215 56.263-2.464 10.417-4.06 21.466-3.631 32.224.035.873.165 1.124.251 3.124h60.366c-.173-2-.287-1.416-.437-1.797-3.175-8.106-5.689-16.666-7.428-25.198-2.498-12.251-3.806-24.729-1.226-37.093 3.611-17.313 13.48-29.805 30.117-36.283 9.424-3.667 18.369-2.624 26.214 4.262.072.063.22.025.412.056l2.565-3.883c-4.94-4.703-10.368-8.389-16.32-11.327zM3.336 94.394c-.46 3.923-.89 7.596-1.34 11.451l11.132 1.336 2.039-11.893c-4.055-.307-7.906-.598-11.831-.894zM25.186 60.208l-10.471-4.097-3.384 9.607 10.671 3.42c1.08-3.031 2.096-5.882 3.184-8.93zM74.605 113.867c3.575.266 7.157.449 11.103.679-1.433-2.979-2.706-5.673-4.039-8.335-.146-.289-.639-.568-.974-.573-3.033-.044-6.068-.025-9.291-.025.726 2.628 1.357 5.053 2.096 7.443.111.361.707.782 1.105.811zM42.933 31.103l-7.955-5.268c-2.132 2.383-4.188 4.68-6.359 7.105l8.178 5.496 6.136-7.333zM68.267 84.472c-.013.321.276.832.558.959 2.865 1.288 5.76 2.515 8.912 3.873-.131-2.492-.219-4.575-.368-6.654-.027-.374-.203-.912-.48-1.066-2.631-1.456-5.299-2.847-8.216-4.395-.159 2.665-.321 4.972-.406 7.283zM65.91 12.3l-5.446-6.181-7.499 3.898c1.876 2.286 3.647 4.443 5.455 6.644l7.49-4.361zM69.325 61.476c-.163.374.052 1.167.373 1.456 2.175 1.962 4.424 3.84 6.926 5.981.573-2.4 1.113-4.539 1.571-6.693.081-.383-.032-1.016-.298-1.23-1.946-1.569-3.955-3.063-6.037-4.651-.915 1.815-1.802 3.443-2.535 5.137zM81.775 9.052c2.78.075 5.563.042 8.499.042-.293-2.044-.433-3.593-.782-5.092-.104-.446-.775-1.04-1.228-1.078-2.787-.226-5.585-.313-8.651-.459.409 2.063.721 3.881 1.162 5.668.093.379.647.909 1 .919zM85.16 44.727c.142-.266.178-.749.029-.981-1.366-2.137-2.785-4.241-4.254-6.455l-4.76 4.372 6.582 7.294c.884-1.539 1.675-2.868 2.403-4.23zM90.295 30.2l2.843 5.281c4.449-2.438 4.875-3.32 3.3-6.834l-6.143 1.553zM111.582 13.927c1.851 1.142 3.806 2.115 5.792 3.185l1.33-2.07c-2.422-1.771-4.76-3.484-7.413-5.426-.104 1.104-.259 1.875-.219 2.637.032.581.129 1.44.51 1.674zM109 30.646c2 .217 5 .424 7 .643v-2.718c-2-.438-5-.872-7-1.323v3.398z"></path>
</symbol>
<symbol id="icon-aws" viewBox="0 0 128 128">
<path d="M38.089 77.466l-11.4 4.896 10.559 4.514 12.241-4.514-11.4-4.896zm-17.138 6.12l-.382 22.034 16.679 7.345v-22.876l-16.297-6.503zm34.276 0l-15.073 5.739v21.575l15.073-6.121v-21.193zM73.206 15.035l-11.476 4.896 10.635 4.515 12.241-4.515-11.4-4.896zm-15.914 6.503v22.034l14.231 4.132.459-20.046-14.69-6.12zm31.828 1.224l-13.466 5.738v21.652l13.466-6.121v-21.269zM19.306 46.047l-11.399 4.897 10.558 4.514 12.241-4.514-11.4-4.897zm-17.138 6.121l-.382 22.034 16.679 7.345v-22.876l-16.297-6.503zm34.275 0l-15.071 5.738v21.574l15.071-6.12v-21.192zM56.03 45.231l-11.4 4.897 10.558 4.514 12.241-4.514-11.399-4.897zm-17.137 6.121l-.383 22.035 16.679 7.345v-22.877l-16.296-6.503zm34.275 0l-15.072 5.738v21.576l15.072-6.121v-21.193zM109.076 15.035l-11.399 4.896 10.559 4.515 12.241-4.515-11.401-4.896zm-17.137 6.121l-.382 22.034 16.679 7.344v-22.876l-16.297-6.502zm34.275 0l-15.071 5.738v21.575l15.071-6.12v-21.193z"></path>
</symbol>
<symbol id="icon-heroku" viewBox="0 0 128 128">
<path d="M114 13.9c0-6.6-5.3-11.9-11.9-11.9h-76.2c-6.6 0-11.9 5.3-11.9 11.9v100.3c0 6.6 5.3 11.9 11.9 11.9h76.3c6.6 0 11.9-5.3 11.9-11.9v-100.3zm-4 .1v99.3c0 4.7-3.5 8.7-8.2 8.7h-75.3c-4.7 0-8.5-4-8.5-8.7v-99.3c0-4.7 3.9-8 8.5-8h75.2c4.7 0 8.4 3.6 8.4 8.3l-.1-.3zM37 108.7l14.1-14.1-14.1-14.1zM51 47.8v-29.4l-13.9.1s.1 45.9.2 45.7c42.8-16.7 39.7-4.8 39.7-4.8v49.4l-.1.2h13.1v-49.5c0-27.1-39-11.7-39-11.7zM70 36h14.8c8-10 10.7-17 10.7-17h-15.3s-4.9 11-10.2 17z"></path>
</symbol>
<symbol id="icon-git" viewBox="0 0 128 128">
<path d="M124.737 58.378l-55.116-55.114c-3.172-3.174-8.32-3.174-11.497 0l-11.444 11.446 14.518 14.518c3.375-1.139 7.243-.375 9.932 2.314 2.703 2.706 3.461 6.607 2.294 9.993l13.992 13.993c3.385-1.167 7.292-.413 9.994 2.295 3.78 3.777 3.78 9.9 0 13.679-3.78 3.78-9.901 3.78-13.683 0-2.842-2.844-3.545-7.019-2.105-10.521l-13.048-13.048-.002 34.341c.922.455 1.791 1.063 2.559 1.828 3.778 3.777 3.778 9.898 0 13.683-3.779 3.777-9.904 3.777-13.679 0-3.778-3.784-3.778-9.905 0-13.683.934-.933 2.014-1.638 3.167-2.11v-34.659c-1.153-.472-2.231-1.172-3.167-2.111-2.862-2.86-3.551-7.06-2.083-10.576l-14.313-14.313-37.792 37.79c-3.175 3.177-3.175 8.325 0 11.5l55.117 55.114c3.174 3.174 8.32 3.174 11.499 0l54.858-54.858c3.174-3.176 3.174-8.327-.001-11.501z"></path>
</symbol>
<symbol id="icon-travis" viewBox="0 0 128 128">
<path d="M40 34h18v61h-8v11h28v-12h-7v-61h19v9h10v-18h-71v18h11zM122.2 3h-116.169c-2.026 0-4.031 1.226-4.031 3.225v116.154c0 2 2.005 3.621 4.031 3.621h116.169c2.026 0 2.8-1.621 2.8-3.621v-116.154c0-1.999-.774-3.225-2.8-3.225zm-16.2 45h-21v-9h-9v48h9v24h-40v-23h6v-48h-6v8h-23v-30h84v30z"></path>
</symbol>
<symbol id="icon-vim" viewBox="0 0 128 128">
<path d="M72.6 80.5c.2.2.6.5.9.5h5.3c.3 0 .7-.3.9-.5l1.4-1.5c.2-.2.3-.4.3-.6l1.5-5.1c.1-.5 0-1-.3-1.3l-1.1-.9c-.2-.2-.6-.1-.9-.1h-4.8l-.2-.2-.1-.1c-.2 0-.4-.1-.6.1l-1.9 1.2c-.2 0-.3.5-.4.7l-1.6 4.9c-.2.5-.1 1.1.3 1.5l1.3 1.4zM73.4 106.9l-.4.1h-1.2l7.2-21.1c.2-.7-.1-1.5-.8-1.7l-.4-.1h-12.1c-.5.1-.9.5-1 1l-.7 2.5c-.2.7.3 1.3 1 1.5l.3-.1h1.8l-7.3 20.9c-.2.7.1 1.6.8 1.9l.4.3h11.2c.6 0 1.1-.5 1.3-1.1l.7-2.4c.3-.7-.1-1.5-.8-1.7zM126.5 87.2l-1.9-2.5v-.1c-.3-.3-.6-.6-1-.6h-7.2c-.4 0-.7.4-1 .6l-2 2.4h-3.1l-2.1-2.4v-.1c-.2-.3-.6-.5-1-.5h-4l20.2-20.2-22.6-22.4 20.2-20.8v-9l-2.8-3.6h-40.9l-3.3 3.5v2.9l-11.3-11.4-7.7 7.5-2.4-2.5h-40.4l-3.2 3.7v9.4l3 2.9h3v26.1l-14 14 14 14v32l5.2 2.9h11.6l9.1-9.5 21.6 21.6 14.5-14.5c.1.4.4.5.9.7l.4-.2h9.4c.6 0 1.1-.1 1.2-.6l.7-2c.2-.7-.1-1.3-.8-1.5l-.4.1h-.4l3.4-10.7 2.3-2.3h5l-5 15.9c-.2.7.2 1.1.9 1.4l.4-.2h9.1c.5 0 1-.1 1.2-.6l.8-1.8c.3-.7-.1-1.3-.7-1.6-.1-.1-.3 0-.5 0h-.4l4.2-13h6.1l-5.1 15.9c-.2.7.2 1.1.9 1.3l.4-.3h10c.5 0 1-.1 1.2-.6l.8-2c.3-.7-.1-1.3-.8-1.5-.1-.1-.3.1-.5.1h-.7l5.6-18.5c.2-.5.1-1.1-.1-1.4zm-63.8-82.3l11.3 11.3v4.7l3.4 4.1h1.6l-29 28v-28h3.3l2.7-4.2v-8.9l-.2-.3 6.9-6.7zm-59.8 59.2l12.1-12.1v24.2l-12.1-12.1zm38.9 38.3l58.4-60 21.4 21.5-20.2 20.2h-.1c-.3.1-.5.3-.7.5l-2.1 2.4h-2.9l-2.2-2.4c-.2-.3-.6-.6-1-.6h-8.8c-.6 0-1.1.4-1.3 1l-.8 2.5c-.2.7.1 1.3.8 1.6h1.5l-6.4 18.9-15.1 15.2-20.5-20.8z"></path>
</symbol>
<symbol id="icon-sass" viewBox="0 0 128 128">
<path fill-rule="evenodd" clip-rule="evenodd" d="M1.219 56.156c0 .703.207 1.167.323 1.618.756 2.933 2.381 5.45 4.309 7.746 2.746 3.272 6.109 5.906 9.554 8.383 2.988 2.148 6.037 4.248 9.037 6.38.515.366 1.002.787 1.561 1.236-.481.26-.881.489-1.297.7-3.959 2.008-7.768 4.259-11.279 6.986-2.116 1.644-4.162 3.391-5.607 5.674-2.325 3.672-3.148 7.584-1.415 11.761.506 1.22 1.278 2.274 2.367 3.053.353.252.749.502 1.162.6 1.058.249 2.136.412 3.207.609l3.033-.002c3.354-.299 6.407-1.448 9.166-3.352 4.312-2.976 7.217-6.966 8.466-12.087.908-3.722.945-7.448-.125-11.153-.099-.344-.224-.681-.354-1.014-.13-.333-.283-.657-.463-1.072l6.876-3.954.103.088c-.125.409-.258.817-.371 1.23-.817 2.984-1.36 6.02-1.165 9.117.208 3.3 1.129 6.389 3.061 9.146 1.562 2.23 5.284 2.313 6.944.075.589-.795 1.16-1.626 1.589-2.513 1.121-2.315 2.159-4.671 3.23-7.011l.187-.428c-.077 1.108-.167 2.081-.208 3.055-.064 1.521.025 3.033.545 4.48.445 1.238 1.202 2.163 2.62 2.326.97.111 1.743-.333 2.456-.896 1.114-.879 2.019-1.965 2.691-3.199 1.901-3.491 3.853-6.961 5.576-10.54 1.864-3.871 3.494-7.855 5.225-11.792l.286-.698c.409 1.607.694 3.181 1.219 4.671.61 1.729 1.365 3.417 2.187 5.058.389.775.344 1.278-.195 1.928-2.256 2.72-4.473 5.473-6.692 8.223-.491.607-.98 1.225-1.389 1.888-.247.403-.411.894-.48 1.364-.133.898.422 1.764 1.383 1.971.878.189 1.813.259 2.708.193 3.097-.228 5.909-1.315 8.395-3.157 3.221-2.386 4.255-5.642 3.475-9.501-.211-1.047-.584-2.065-.947-3.074-.163-.455-.174-.774.123-1.198 2.575-3.677 4.775-7.578 6.821-11.569.081-.157.164-.314.306-.482.663 3.45 1.661 6.775 3.449 9.792-.912.879-1.815 1.676-2.632 2.554-1.799 1.934-3.359 4.034-4.173 6.595-.35 1.104-.619 2.226-.463 3.405.242 1.831 1.742 3.021 3.543 2.604 3.854-.892 7.181-2.708 9.612-5.925 1.636-2.166 1.785-4.582 1.1-7.113-.188-.688-.411-1.365-.651-2.154.951-.295 1.878-.649 2.837-.868 4.979-1.136 9.904-.938 14.702.86 2.801 1.05 5.064 2.807 6.406 5.571 1.639 3.379.733 6.585-2.452 8.721-.297.199-.637.356-.883.605-.151.153-.242.459-.205.67.021.123.346.277.533.275 1.047-.008 1.896-.557 2.711-1.121 2.042-1.413 3.532-3.314 3.853-5.817l.063-.188-.077-1.63c-.031-.094.023-.187.016-.258-.434-3.645-2.381-6.472-5.213-8.688-3.28-2.565-7.153-3.621-11.249-3.788-3.338-.136-6.619.36-9.765 1.503-.897.325-1.786.71-2.688 1.073-.121-.219-.251-.429-.358-.646-.926-1.896-2.048-3.708-2.296-5.882-.176-1.544-.392-3.086-.025-4.613.353-1.469.813-2.913 1.246-4.362.223-.746.066-1.164-.646-1.5-.248-.117-.518-.219-.786-.258-1.75-.254-3.476-.109-5.171.384-.6.175-1.036.511-1.169 1.175-.076.381-.231.746-.339 1.122-.443 1.563-.757 3.156-1.473 4.645-1.794 3.735-3.842 7.329-5.938 10.897-.227.385-.466.763-.752 1.23-.736-1.54-1.521-2.922-1.759-4.542-.269-1.832-.481-3.661-.025-5.479.339-1.356.782-2.687 1.19-4.025.193-.636.104-.97-.472-1.305-.291-.169-.62-.319-.948-.368-1.815-.269-3.603-.128-5.354.438-.543.176-.828.527-.994 1.087-.488 1.652-.904 3.344-1.589 4.915-2.774 6.36-5.628 12.687-8.479 19.013-.595 1.321-1.292 2.596-1.963 3.882-.17.326-.418.613-.63.919-.17-.201-.236-.339-.235-.477.005-.813-.092-1.65.063-2.436.469-2.378 1.009-4.743 1.578-7.099.47-1.946 1.017-3.874 1.538-5.807.175-.647.178-1.252-.287-1.796-.781-.911-2.413-1.111-3.381-.409l-.428.242.083-.69c.204-1.479.245-2.953-.161-4.41-.506-1.816-1.802-2.861-3.686-2.803-.878.027-1.8.177-2.613.497-3.419 1.34-6.048 3.713-8.286 6.568-.203.259-.471.495-.757.654-2.893 1.604-5.795 3.188-8.696 4.778l-3.229 1.769c-.866-.826-1.653-1.683-2.546-2.41-2.727-2.224-5.498-4.393-8.244-6.592-2.434-1.949-4.792-3.979-6.596-6.56-1.342-1.92-2.207-4.021-2.29-6.395-.105-3.025.753-5.789 2.293-8.362 1.97-3.292 4.657-5.934 7.611-8.327 3.125-2.53 6.505-4.678 10.008-6.639 4.901-2.743 9.942-5.171 15.347-6.774 5.542-1.644 11.165-2.585 16.965-1.929 2.28.258 4.494.78 6.527 1.895 1.557.853 2.834 1.97 3.428 3.716.586 1.718.568 3.459.162 5.204-.825 3.534-2.76 6.447-5.195 9.05-3.994 4.267-8.866 7.172-14.351 9.091-3.165 1.107-6.421 1.802-9.765 2.083-2.729.229-5.401-.013-7.985-.962-1.711-.629-3.201-1.591-4.399-2.987-.214-.25-.488-.521-.887-.287-.391.23-.46.602-.329.979.219.626.421 1.278.762 1.838.857 1.405 2.107 2.424 3.483 3.298 2.643 1.681 5.597 2.246 8.66 2.377 4.648.201 9.183-.493 13.654-1.74 6.383-1.78 11.933-4.924 16.384-9.884 3.706-4.13 6.353-8.791 6.92-14.419.277-2.747-.018-5.438-1.304-7.944-1.395-2.715-3.613-4.734-6.265-6.125-3.862-2.025-8.03-3.204-12.332-3.204h-4.31c-5.21 0-10.247 1.493-15.143 3.274-3.706 1.349-7.34 2.941-10.868 4.703-7.683 3.839-14.838 8.468-20.715 14.833-2.928 3.171-5.407 6.67-6.833 10.79-.417 1.206-.813 2.499-1.111 3.746m27.839 36.013c-.333 4.459-2.354 8.074-5.657 11.002-1.858 1.646-3.989 2.818-6.471 3.23-.9.149-1.821.185-2.694-.188-1.245-.532-1.524-1.637-1.548-2.814-.037-1.876.62-3.572 1.521-5.186 1.176-2.104 2.9-3.708 4.741-5.206 2.9-2.361 6.046-4.359 9.268-6.245l.243-.1c.498 1.84.735 3.657.597 5.507zm25.158-19.379c-.235 1.424-.529 2.849-.945 4.229-1.438 4.777-3.285 9.406-5.282 13.973-.369.845-.906 1.616-1.373 2.417-.072.124-.179.231-.283.334-.578.571-1.126.541-1.418-.206-.34-.868-.549-1.797-.729-2.716-.121-.617-.092-1.265-.13-1.897.039-4.494 1.41-8.578 3.736-12.38.959-1.568 2.003-3.062 3.598-4.054.49-.305 1.04-.55 1.595-.706.85-.239 1.372.154 1.231 1.006zm17.164 21.868l6.169-7.203c.257 2.675-4.29 8.015-6.169 7.203zm19.703-4.847c-.436.25-.911.43-1.358.661-.409.212-.544-.002-.556-.354-.008-.239.027-.489.093-.721.833-2.938 2.366-5.446 4.647-7.486l.16-.082c1.085 3.035-.169 6.368-2.986 7.982z"></path>
</symbol>
<symbol id="icon-apple" viewBox="0 0 128 128">
<path d="M97.905 67.885c.174 18.8 16.494 25.057 16.674 25.137-.138.44-2.607 8.916-8.597 17.669-5.178 7.568-10.553 15.108-19.018 15.266-8.318.152-10.993-4.934-20.504-4.934-9.508 0-12.479 4.776-20.354 5.086-8.172.31-14.395-8.185-19.616-15.724-10.668-15.424-18.821-43.585-7.874-62.594 5.438-9.44 15.158-15.417 25.707-15.571 8.024-.153 15.598 5.398 20.503 5.398 4.902 0 14.106-6.676 23.782-5.696 4.051.169 15.421 1.636 22.722 12.324-.587.365-13.566 7.921-13.425 23.639m-15.633-46.166c4.338-5.251 7.258-12.563 6.462-19.836-6.254.251-13.816 4.167-18.301 9.416-4.02 4.647-7.54 12.087-6.591 19.216 6.971.54 14.091-3.542 18.43-8.796"></path>
</symbol>
</defs>
</svg>
